<svg width="45" height="45" viewBox="0 0 45 45" fill="none" xmlns="http://www.w3.org/2000/svg">
<path d="M15 15L15 13.125C15 8.98287 18.3579 5.625 22.5 5.625V5.625C26.6421 5.625 30 8.98287 30 13.125L30 15" stroke="#000066" stroke-width="2" stroke-linecap="round"/>
<path d="M28.125 26.25V22.5" stroke="#000066" stroke-width="2" stroke-linecap="round"/>
<path d="M16.875 26.25V22.5" stroke="#000066" stroke-width="2" stroke-linecap="round"/>
<path d="M7.5 19C7.5 17.1144 7.5 16.1716 8.08579 15.5858C8.67157 15 9.61438 15 11.5 15H33.5C35.3856 15 36.3284 15 36.9142 15.5858C37.5 16.1716 37.5 17.1144 37.5 19V31.375C37.5 35.1462 37.5 37.0319 36.3284 38.2034C35.1569 39.375 33.2712 39.375 29.5 39.375H15.5C11.7288 39.375 9.84315 39.375 8.67157 38.2034C7.5 37.0319 7.5 35.1462 7.5 31.375V19Z" stroke="#000066" stroke-width="2"/>
</svg>
