<?xml version="1.0" encoding="UTF-8"?>
<svg xmlns="http://www.w3.org/2000/svg" xmlns:xlink="http://www.w3.org/1999/xlink" width="1000px" height="1000px" viewBox="0 0 1000 1000" version="1.1">
<g id="surface1">
<path style=" stroke:none;fill-rule:nonzero;fill:rgb(0%,0%,0%);fill-opacity:1;" d="M 501 157.398438 C 491.199219 159.199219 488.601562 160.199219 483.398438 164.800781 C 478.199219 169.199219 477.398438 169.398438 472.398438 166.800781 C 465.199219 163 458.601562 163.398438 449 167.800781 C 439.398438 172.199219 435.199219 176.601562 431 186.601562 C 424.398438 202.601562 430.398438 222.601562 444.601562 231.800781 L 452 236.601562 L 452 282 L 560 282 L 560 258 C 560 243.398438 560.800781 234 562 234 C 563 234 567.601562 230.800781 571.800781 227 C 595.199219 205.800781 578.601562 164 546.800781 164 C 543.199219 164 538 165 535.398438 166.199219 C 531.199219 168 529.398438 167.800781 524.601562 164 C 518.199219 159.398438 507.398438 156.398438 501 157.398438 Z M 515.199219 173.800781 C 518.800781 176 523.199219 180.398438 525.199219 183.800781 C 528.800781 189.800781 534 192.199219 534 187.800781 C 534 183.800781 539.800781 180 545.800781 180 C 550.601562 180 552 180.800781 552 183.800781 C 552 186 551 188.398438 549.800781 189 C 548.601562 189.800781 548 195.199219 548.199219 201.199219 C 548.601562 209.601562 547.800781 213 545.199219 215.601562 C 542.601562 218 541.199219 218.398438 540.601562 216.601562 C 540 215.199219 538 212 536.199219 209.601562 L 532.601562 205.199219 L 526.800781 209.800781 C 523.601562 212.398438 521.199219 214.800781 521.601562 215.601562 C 522.800781 217.398438 507.800781 224 502.601562 224 C 496 224 490.601562 220.800781 482.601562 212.199219 C 476 205.199219 475.800781 205.199219 473 208.800781 C 471.398438 211 470 214.398438 470 216.398438 C 470 218.199219 468.199219 220.800781 465.800781 222 C 451 230 433 205.800781 441.800781 189.398438 C 449 176 474 174.199219 474 187.199219 C 474 192.398438 479 190 483.800781 182.199219 C 491.398438 169.601562 503.398438 166.601562 515.199219 173.800781 Z M 531.199219 247.398438 C 531 264.398438 530.601562 267 527.601562 267.601562 C 524.398438 268.199219 524 266.398438 524 250.800781 C 524 236.601562 524.601562 233 527.601562 230.800781 C 529.398438 229.398438 531 228 531.199219 228 C 531.199219 228 531.199219 236.800781 531.199219 247.398438 Z M 481.601562 249.601562 L 482.199219 268 L 474 268 C 466.601562 268 466 267.601562 466 262.199219 C 466 259.199219 465.398438 252.601562 464.800781 247.601562 C 463.601562 239 463.800781 238.398438 470.199219 234.398438 C 474 232.199219 478 230.601562 479 230.800781 C 480.199219 231.199219 481.199219 239.601562 481.601562 249.601562 Z M 510.398438 253 C 509.800781 267 509.398438 267.601562 504.398438 268.601562 C 501.398438 269.199219 498.398438 269.199219 497.601562 268.601562 C 496.601562 268.199219 496 261.199219 496 253 L 496 238.199219 L 503.601562 238.398438 L 511 238.398438 Z M 510.398438 253 "/>
<path style=" stroke:none;fill-rule:nonzero;fill:rgb(0%,0%,0%);fill-opacity:1;" d="M 504 218 C 499.199219 219.601562 499.199219 219.601562 505 219.601562 C 508.398438 219.601562 512.800781 219 515 218 C 518.601562 216.398438 518.601562 216.199219 514 216.398438 C 511.199219 216.398438 506.800781 217.199219 504 218 Z M 504 218 "/>
<path style=" stroke:none;fill-rule:nonzero;fill:rgb(0%,0%,0%);fill-opacity:1;" d="M 620.199219 239 C 617.398438 251.800781 614.800781 254 597 259 L 585 262.601562 L 591 265.199219 C 594.398438 266.601562 598.398438 267.800781 600.199219 268 C 610 268.199219 615.800781 272.398438 618.800781 281.601562 C 620.601562 286.601562 622 292.398438 622 294.398438 C 622 301.601562 625 297.800781 628.601562 286 C 632.398438 272.800781 634.601562 271.199219 653.800781 266 C 664.199219 263.199219 662.398438 261.199219 646.601562 258 C 634.398438 255.398438 633.601562 254.398438 628.800781 239.398438 C 626.800781 233.199219 624.601562 228 624 228 C 623.199219 228 621.601562 233 620.199219 239 Z M 630 262 C 631.199219 262 630 264 627.800781 266.199219 C 623.800781 270.199219 623.199219 270.199219 621.601562 267.199219 C 620.601562 265.398438 617.800781 264 615.398438 263.800781 C 611.601562 263.800781 611.601562 263.398438 616.601562 261.601562 C 620.199219 260.398438 622 258.199219 622 255.398438 C 622.199219 251.398438 622.398438 251.398438 625.199219 256.398438 C 626.800781 259.601562 629 262 630 262 Z M 630 262 "/>
<path style=" stroke:none;fill-rule:nonzero;fill:rgb(0%,0%,0%);fill-opacity:1;" d="M 382.800781 237 C 379.800781 250 376.398438 253.601562 363.601562 258.199219 L 351.398438 262.800781 L 363.800781 268.398438 C 374.800781 273.199219 376.601562 275 380.800781 283.800781 C 385.398438 293.800781 388 295 388 287.601562 C 388 280.199219 393.601562 273 401.398438 270.199219 C 405.601562 268.601562 411.199219 266.601562 414 265.398438 L 419 263.601562 L 413 260.800781 C 409.800781 259.398438 405.199219 258.199219 403 258 C 396.398438 257.800781 394 255.199219 389 243 C 384.398438 231.398438 384.199219 231.398438 382.800781 237 Z M 389 261 C 392.601562 263.800781 392.601562 264.199219 389.398438 267.398438 C 386.398438 270.601562 385.601562 270.601562 383 267.800781 C 381.199219 266 380.398438 263.199219 381.199219 261.398438 C 382.601562 257.199219 383.800781 257.199219 389 261 Z M 389 261 "/>
<path style=" stroke:none;fill-rule:nonzero;fill:rgb(0%,0%,0%);fill-opacity:1;" d="M 300.601562 270.601562 C 291.199219 283 290 290 295 305 C 297.199219 311.601562 297.601562 312.199219 297.800781 307.800781 C 298 305 300.199219 300.800781 302.800781 298.398438 C 308.601562 293.601562 310.601562 285.398438 309.601562 270.199219 L 309 259.199219 Z M 300.601562 270.601562 "/>
<path style=" stroke:none;fill-rule:nonzero;fill:rgb(0%,0%,0%);fill-opacity:1;" d="M 694.199219 277.800781 C 694.800781 288.601562 696 294.800781 698.199219 297.199219 C 700 299.398438 702.199219 304.601562 703 309 C 704.398438 316.199219 704.601562 316.601562 706.199219 312.398438 C 707.199219 310 708.398438 302.199219 709.199219 295 C 710.398438 282.800781 710.199219 281.601562 704 272 C 700.398438 266.601562 696.601562 262 695.601562 262 C 694.398438 262 693.800781 268.199219 694.199219 277.800781 Z M 694.199219 277.800781 "/>
<path style=" stroke:none;fill-rule:nonzero;fill:rgb(0%,0%,0%);fill-opacity:1;" d="M 808 271.800781 C 788.601562 277.800781 780.601562 287.199219 766 321 C 763.800781 326.398438 761 332.800781 760 335 C 751 356.199219 735.800781 399.199219 730.601562 418 C 729.398438 422.800781 727.800781 424.800781 725.601562 424.398438 C 723.398438 424 719.601562 428 715 434.800781 C 711.199219 440.800781 706.601562 446.800781 705 448 C 701.199219 451.199219 701.199219 453.800781 705.398438 458.398438 C 709 462.398438 710.199219 460.800781 670.601562 502.398438 C 659.601562 514 656 519.199219 656 523.398438 C 656 531.800781 661.199219 538 668.199219 538 C 676.601562 538 686 527.398438 705 496.398438 C 720.601562 470.800781 721 470.601562 725.398438 473.601562 C 730 476.398438 730.601562 476 741 464.800781 C 747.199219 458 751.800781 451 752 448.398438 C 752 446 753 444 754.199219 444 C 756 444 784.601562 423.800781 788 420 C 788.601562 419.398438 794 415.199219 800 410.601562 C 806 406 813.199219 400.199219 816 397.601562 C 818.800781 395 827.800781 387.398438 836 380.601562 C 866.800781 355.398438 876 342 876 322.199219 C 876 302.199219 864.800781 286.398438 843 275.800781 C 830.800781 270 818.800781 268.601562 808 271.800781 Z M 835 282 C 835.800781 283.199219 832.800781 285.398438 828.601562 287.199219 C 815.199219 292.601562 811.398438 294.800781 803.601562 302.800781 C 795 311.199219 775.601562 343 757.398438 378 C 746.398438 399.601562 739.398438 410.601562 743 401 C 743.800781 398.800781 745.199219 394.800781 746 392 C 749.601562 380.800781 774 321.800781 779.800781 310.199219 C 786.199219 297.601562 796.398438 286.800781 805.601562 282.601562 C 812.199219 279.601562 833.199219 279.199219 835 282 Z M 846.800781 303.199219 C 846.601562 314.601562 842 327.601562 835.601562 334.199219 C 834 335.800781 830.800781 339.601562 828.199219 343 C 825.800781 346.199219 819.800781 353 815.199219 358 C 805.601562 368.398438 769.398438 408.199219 761.800781 417 C 754.800781 425.199219 743 435.601562 745 432 C 745.800781 430.398438 748.199219 427.199219 750.199219 425 C 752 422.800781 756.199219 416.800781 759.398438 411.601562 C 762.398438 406.601562 771 393.800781 778.398438 383.199219 C 785.800781 372.601562 795.800781 357 800.199219 348.601562 L 808.601562 333 L 802.199219 339 C 795.800781 345 749.601562 411.199219 743 424 C 741 427.800781 739 430 738.601562 428.601562 C 737.800781 426.199219 744.800781 411 749 406 C 750.398438 404.398438 759.800781 388.398438 769.800781 370.398438 C 788.398438 336.800781 801.800781 316.601562 810.800781 308.199219 C 816.398438 303 842 290 845 290.800781 C 846.199219 291.199219 847 296.800781 846.800781 303.199219 Z M 864.398438 307.398438 C 867.601562 314.601562 868.199219 319.199219 867.398438 327.398438 C 866 340.800781 858.800781 351 839.398438 367.398438 C 831.398438 374.199219 822.800781 381.601562 820 384 C 817.199219 386.398438 807.398438 394.398438 798 401.601562 C 788.601562 409 777.398438 418.199219 773 422.398438 C 768.601562 426.398438 764.800781 429.398438 764.199219 429 C 763.199219 428 776.398438 411.601562 785 403 C 799 389.199219 833.800781 350.199219 841.398438 340 C 853 324.398438 856 317.601562 856 307 C 856 295.398438 859.199219 295.601562 864.398438 307.398438 Z M 729 439.800781 C 732.199219 443.601562 732.199219 444 728 449.800781 C 723.398438 456.398438 716.601562 458 714.800781 453 C 713.601562 450.199219 721.601562 436 724.199219 436 C 724.800781 436 727 437.800781 729 439.800781 Z M 698.601562 488.398438 C 695 494.601562 679.601562 515.601562 674.199219 522 C 669.601562 527.398438 667.601562 528.398438 665.800781 526.601562 C 662.800781 523.601562 670.398438 512.800781 686.800781 497.601562 C 699.398438 485.601562 701.398438 484.199219 698.601562 488.398438 Z M 698.601562 488.398438 "/>
<path style=" stroke:none;fill-rule:nonzero;fill:rgb(0%,0%,0%);fill-opacity:1;" d="M 147 284.601562 C 138.800781 297.199219 141.800781 308 158 322.398438 C 162.398438 326.398438 167.800781 334 170 339.199219 L 174.199219 348.601562 L 169.800781 353.199219 C 164.601562 358.800781 165 360 178.601562 378.398438 C 193.800781 399 230.199219 453.601562 235 462.800781 C 240 472.199219 241.800781 473 250.601562 469.199219 C 254.601562 467.601562 258 467 258.398438 467.601562 C 258.800781 468.398438 263.199219 472.601562 268.398438 476.800781 C 275.800781 482.601562 279 487.398438 283.398438 498.199219 C 289.199219 512.800781 299 525 307.398438 528.199219 C 336.199219 539 340.800781 504.601562 313.199219 484.199219 C 299.398438 473.800781 295 468.800781 289.800781 457.199219 L 285.601562 447.601562 L 289.601562 442 L 293.800781 436.601562 L 277.398438 414.398438 C 268.398438 402.199219 250.800781 377.398438 238.398438 359.398438 L 216 326.398438 L 209.199219 328.398438 C 202.800781 330.398438 202 330 196.398438 323.800781 C 193 320 188.199219 311.601562 185.800781 305.199219 C 183.398438 298.800781 178.199219 290.398438 174.601562 286.800781 C 169 281.199219 166.398438 280 159 280 C 152 280 149.398438 281 147 284.601562 Z M 164 296.800781 C 164 299.601562 166 304.199219 168.601562 307.398438 C 176.800781 317.199219 189.601562 337.800781 188.398438 338.800781 C 186.199219 341.199219 184 339.800781 181.199219 334.398438 C 179.601562 331.398438 173 322.800781 166.199219 315.199219 C 152.800781 300 150.199219 292 159 292 C 163 292 164 293 164 296.800781 Z M 207 349 C 205.398438 353 205 355.601562 206 355 C 208.601562 353.398438 211 358.398438 210.199219 364.601562 C 209.601562 370.601562 213.199219 376.800781 216.199219 374.800781 C 217.199219 374.199219 218.800781 376 219.800781 378.601562 C 220.800781 381.199219 223.199219 384 225 384.800781 C 227 385.398438 228 387.398438 227.398438 388.800781 C 226.800781 390.398438 227.601562 392.800781 229 394 C 230.601562 395.398438 231.601562 397 231 397.800781 C 230.601562 398.601562 231.800781 400.601562 233.800781 402.398438 C 236.398438 404.601562 237.398438 407.800781 237 413.800781 C 236.601562 421.601562 237.398438 422.800781 243 422.199219 C 245.199219 422 250.398438 432.398438 251.398438 438.601562 C 251.800781 441 251.199219 441.800781 249.601562 440.800781 C 248.199219 440 248 440.199219 248.800781 441.800781 C 249.800781 443.398438 251.199219 443.601562 252.800781 442.199219 C 254.601562 440.800781 255.199219 441.800781 255 446.199219 C 255 451.800781 251.601562 456 246.800781 456 C 245.601562 456 239.800781 448.601562 234.199219 439.398438 C 222.800781 421.398438 201.800781 391.199219 188.601562 373.800781 C 183.800781 367.601562 180 362 180 361.398438 C 180 359.800781 206 342.398438 208.601562 342.199219 C 209.398438 342 208.800781 345.199219 207 349 Z M 277 461 C 277 465.398438 274.199219 466.601562 270.199219 464.199219 C 267.800781 462.601562 267.800781 462 270.199219 459.199219 C 273.800781 455.398438 277 456.199219 277 461 Z M 303.199219 498.800781 C 307.199219 506.199219 309.800781 512.800781 309.398438 513.199219 C 307.199219 515.398438 297.800781 504.800781 294.800781 496.398438 C 292.800781 491.199219 289.601562 484.199219 287.601562 481 C 285.601562 477.601562 284 474 284 473 C 284.199219 469 296.601562 485.398438 303.199219 498.800781 Z M 303.199219 498.800781 "/>
<path style=" stroke:none;fill-rule:nonzero;fill:rgb(0%,0%,0%);fill-opacity:1;" d="M 208 374.800781 C 208 375.199219 209.601562 376.800781 211.601562 378.199219 C 214.601562 380.800781 214.800781 380.601562 212.199219 377.398438 C 209.601562 374.199219 208 373.199219 208 374.800781 Z M 208 374.800781 "/>
<path style=" stroke:none;fill-rule:nonzero;fill:rgb(0%,0%,0%);fill-opacity:1;" d="M 276 305 C 276 314.601562 281 324 286 324 C 289 324 290 325.398438 290 329.398438 C 290 337.601562 293.199219 341.601562 294.601562 335.601562 C 295.398438 333.199219 296 329.199219 296 327.199219 C 296 320.601562 288 306.199219 281.800781 301.800781 L 276 297.800781 Z M 276 305 "/>
<path style=" stroke:none;fill-rule:nonzero;fill:rgb(0%,0%,0%);fill-opacity:1;" d="M 312 302.601562 C 306.800781 305.199219 298 316.800781 298 321.199219 C 298 324.601562 305.800781 324.800781 310.199219 321.398438 C 314 318.601562 324 304.199219 324 301.800781 C 324 299.199219 317.800781 299.601562 312 302.601562 Z M 312 302.601562 "/>
<path style=" stroke:none;fill-rule:nonzero;fill:rgb(0%,0%,0%);fill-opacity:1;" d="M 680 302 C 680 309.601562 692 323.800781 698.398438 324 C 704 324 704.601562 320.199219 699.800781 312.800781 C 694.800781 304.601562 680 296.601562 680 302 Z M 680 302 "/>
<path style=" stroke:none;fill-rule:nonzero;fill:rgb(0%,0%,0%);fill-opacity:1;" d="M 719.398438 302.199219 C 717.398438 303.398438 713.601562 308.800781 711 314.601562 C 706.601562 323.800781 706 327 706.199219 347.800781 C 706.398438 370.199219 706.601562 370.601562 708.800781 361 C 710.398438 354.199219 712.398438 350.800781 715 350 C 723.800781 347.601562 728.800781 342.199219 731 332.398438 L 732.398438 326 L 725 329.398438 C 720 331.800781 716 336 712.800781 342 L 708 351 L 708.601562 339.398438 C 709.398438 328.800781 710 327.398438 715.800781 323.800781 C 722.398438 319.800781 726 313.199219 726 304.800781 C 726 299.601562 724.800781 299 719.398438 302.199219 Z M 719.398438 302.199219 "/>
<path style=" stroke:none;fill-rule:nonzero;fill:rgb(0%,0%,0%);fill-opacity:1;" d="M 481 309.398438 C 468.199219 310.199219 436 315.601562 422.800781 319 C 404 323.800781 379 335.800781 368.601562 345.199219 C 362.398438 350.398438 356 358.601562 352.800781 365.199219 C 348.199219 374.601562 347.601562 377.800781 348.398438 388.800781 C 349.199219 397 351.398438 405 354.601562 411.199219 C 359.199219 420.199219 359.800781 423.601562 360.601562 450 C 361.398438 480.800781 363.800781 489.800781 373.601562 498.601562 C 383.398438 507.601562 387.398438 507.800781 499 507.800781 C 557.398438 507.800781 609.199219 507 614.601562 506.199219 C 625.800781 504.398438 637.398438 495.800781 642.398438 485.800781 C 645.199219 480.398438 645.800781 473 646 448.800781 C 646 419.398438 646.199219 418.398438 651 412.800781 C 666 395.398438 660.398438 365.398438 638.601562 346 C 618.601562 328.398438 595.199219 319.800781 543 311.199219 C 534.601562 309.800781 493 308.601562 481 309.398438 Z M 528 325 C 542.601562 330.199219 564.398438 345 574 356.398438 C 583.398438 367.398438 590.199219 376.800781 582.800781 368.398438 L 578.601562 363.601562 L 574.199219 368.199219 C 572 370.601562 570 373.800781 570 375.199219 C 570 376.398438 568.199219 379.800781 565.800781 382.800781 C 562.601562 387 561 387.601562 559 386 C 556.800781 384.199219 556.199219 384.601562 556.398438 387.398438 C 556.800781 392.601562 550 406 547 406 C 545.601562 406 544 406.800781 543.601562 407.800781 C 542.199219 412.199219 488.800781 416 484.800781 412 C 483.601562 410.800781 480.398438 410.800781 476 412 C 472.199219 413.199219 449.398438 414 425.398438 414 C 378.800781 414 374 413.199219 365.601562 403.199219 C 355.199219 391 356.398438 375.199219 369.199219 360.398438 C 379.800781 347.800781 392.199219 341.199219 402.398438 342.601562 C 415.800781 344.398438 435.398438 355.800781 450.800781 370.601562 C 468.800781 388 476.398438 394 480.800781 394 C 486 394 483.199219 387.398438 471.601562 371.601562 C 460.199219 356 447 344.398438 433.398438 337.800781 C 428.199219 335.199219 424 332.601562 424 332 C 424 331.199219 431 329.601562 439.800781 328.199219 C 455 326 455.800781 326 468.199219 331.398438 C 487.601562 339.601562 500.800781 349 514.601562 364.398438 C 536.398438 389.199219 539.601562 392 543.800781 392 C 561.398438 392 524.398438 344.398438 495.601562 329.800781 C 486.199219 325 484 323.199219 486.199219 321.601562 C 490 319 517.199219 321.199219 528 325 Z M 581 331.398438 C 583.199219 332 588.800781 334.398438 593.601562 336.601562 C 602.601562 340.800781 608.800781 350.199219 613.398438 367 C 620 390.800781 620 390.199219 616.398438 389.601562 C 614.199219 389.199219 612.800781 386.601562 612.398438 382.199219 C 611.199219 370.199219 597.398438 352.800781 577.601562 338.199219 C 571.199219 333.601562 566 329.398438 566 328.800781 C 566 328 571.800781 329 581 331.398438 Z M 474 430.199219 C 526.199219 431 569.199219 431.601562 569.398438 431.800781 C 569.800781 431.800781 569.800781 434.199219 569.601562 437 L 569.199219 442 L 513 442.199219 C 482.199219 442.398438 440.800781 443 421 443.800781 C 387.800781 445 385 445.199219 385 448.601562 C 385 452.199219 388.199219 452.398438 457 452.199219 C 523.398438 451.800781 597.800781 453.800781 589.601562 455.601562 C 587.601562 456 586 457.601562 586 459 C 586 462.199219 569.800781 462.601562 451.199219 463.601562 C 416.199219 463.800781 386.601562 464.601562 385.800781 465.199219 C 384.800781 465.800781 384 467.800781 384 469.800781 C 384 473.199219 389 473.398438 463 474.601562 C 527.199219 475.601562 542.601562 476.398438 545 478.601562 C 550.398438 484.199219 544.199219 486 519 486 C 505.800781 486 491.398438 487 487 488.199219 C 477 490.800781 386.199219 492 381.398438 489.601562 C 374.398438 486 372 475.601562 372 449.800781 C 372 427.398438 372.199219 425.601562 375.601562 427.199219 C 377.398438 428.199219 421.800781 429.398438 474 430.199219 Z M 474 430.199219 "/>
<path style=" stroke:none;fill-rule:nonzero;fill:rgb(0%,0%,0%);fill-opacity:1;" d="M 381.398438 372.199219 C 377 374.800781 377 381.800781 381.199219 383.398438 C 385.199219 385 390.800781 381.800781 391.601562 377.398438 C 392.398438 373.199219 385.800781 369.800781 381.398438 372.199219 Z M 381.398438 372.199219 "/>
<path style=" stroke:none;fill-rule:nonzero;fill:rgb(0%,0%,0%);fill-opacity:1;" d="M 410 375 C 406.398438 379.199219 409 384 415 384 C 417.800781 384 420.601562 382.601562 421.199219 381 C 422.601562 377.601562 418.800781 372 415 372 C 413.601562 372 411.398438 373.398438 410 375 Z M 410 375 "/>
<path style=" stroke:none;fill-rule:nonzero;fill:rgb(0%,0%,0%);fill-opacity:1;" d="M 492.800781 379 C 492.199219 380.601562 492.199219 382.800781 493 384 C 494.800781 386.800781 500 382.800781 500 378.800781 C 500 375 494.199219 375.199219 492.800781 379 Z M 492.800781 379 "/>
<path style=" stroke:none;fill-rule:nonzero;fill:rgb(0%,0%,0%);fill-opacity:1;" d="M 268 329.199219 C 268 337.601562 278 349.199219 286 350.398438 C 290.199219 350.800781 291.199219 352.199219 291.601562 358.398438 C 292 362.601562 293.199219 366 294.398438 366 C 298.199219 366 294.800781 349.398438 289.601562 340.800781 C 286 335.398438 281.800781 331.800781 276.199219 329.601562 C 269.199219 326.800781 268 326.800781 268 329.199219 Z M 268 329.199219 "/>
<path style=" stroke:none;fill-rule:nonzero;fill:rgb(0%,0%,0%);fill-opacity:1;" d="M 311 329.398438 C 304.800781 332.601562 298 339.398438 298 342.199219 C 298 343 297.398438 345 296.800781 346.800781 C 295.199219 351 303.398438 351 308.800781 347 C 314 343 320 333.800781 320 329.398438 C 320 325.199219 318.800781 325.199219 311 329.398438 Z M 311 329.398438 "/>
<path style=" stroke:none;fill-rule:nonzero;fill:rgb(0%,0%,0%);fill-opacity:1;" d="M 682 329.800781 C 682 337.199219 690.800781 347 700.601562 350.601562 C 706.199219 352.601562 704.800781 343 698.601562 336.199219 C 692.601562 329.800781 682 325.800781 682 329.800781 Z M 682 329.800781 "/>
<path style=" stroke:none;fill-rule:nonzero;fill:rgb(0%,0%,0%);fill-opacity:1;" d="M 312 355.601562 C 308 357.601562 303.199219 362.199219 301 366.398438 C 298.800781 370.601562 296.601562 374 296 374 C 295.398438 374 293.199219 371.398438 291.199219 368.199219 C 286.800781 361.800781 281.800781 358.199219 273.601562 355.800781 C 268.800781 354.601562 268 354.800781 268 358.199219 C 268 364.601562 278.800781 374.800781 288.199219 377 C 294 378.398438 297 380.398438 298.199219 383.601562 C 299.800781 387.800781 299.398438 388 291 388 C 283.398438 388 282.398438 388.601562 283.398438 391.398438 C 285.601562 398 290.601562 402 297.800781 403.199219 C 301.800781 404 306.199219 405.398438 307.601562 406.601562 C 309.199219 407.800781 310 407.800781 310 406 C 310 404.601562 312.800781 400.398438 316 396.601562 C 319.800781 392.398438 322 387.601562 322 384 C 322 380.601562 321.601562 378 321 378 C 318 378 308 384.398438 306.199219 387.398438 C 304.398438 390.601562 303.800781 390.601562 302 388 C 299 383.398438 299.601562 376 303 376 C 307.800781 376 318 365.601562 319.800781 358.398438 C 322 351 321.398438 350.800781 312 355.601562 Z M 312 355.601562 "/>
<path style=" stroke:none;fill-rule:nonzero;fill:rgb(0%,0%,0%);fill-opacity:1;" d="M 682 356.199219 C 682 363.398438 693 376 699.398438 376 C 703.199219 376 704 377 704 381.800781 C 704 390 701.800781 390.601562 694 385 C 690.199219 382.199219 685.601562 380 683.800781 380 C 678.398438 380 682.398438 391.601562 690 398.398438 C 693.199219 401.398438 696 404.800781 696 406 C 696 409.398438 685.398438 430.800781 679.601562 438.800781 C 673.398438 447.601562 673.601562 451.199219 680 443.800781 C 684.601562 438.398438 700 408 700 404.398438 C 700 403 702.601562 402 705.601562 402 C 711.398438 402 718.199219 396.199219 720.800781 389.199219 C 721.800781 386.199219 721.199219 385.800781 717.199219 386.800781 C 714.601562 387.398438 711 388.601562 709.199219 389.199219 C 706.800781 390.199219 706 389.199219 706 385.601562 C 706 379.601562 709.398438 376 715 376 C 720.199219 376 727.601562 369.398438 730.199219 362.601562 C 733 355 732.398438 354 726 356.199219 C 720.398438 358.199219 713.800781 364.800781 708.800781 373 C 707 376.199219 706.199219 375.601562 701.398438 367.398438 C 695.800781 358 691 354 685.199219 354 C 683.398438 354 682 355 682 356.199219 Z M 682 356.199219 "/>
<path style=" stroke:none;fill-rule:nonzero;fill:rgb(0%,0%,0%);fill-opacity:1;" d="M 310 411 C 310 415.199219 333.800781 446.601562 334 442.800781 C 334 441.601562 332.199219 439 329.800781 436.800781 C 327.601562 434.800781 322.398438 428 318.601562 421.601562 C 311.800781 410.800781 310 408.398438 310 411 Z M 310 411 "/>
<path style=" stroke:none;fill-rule:nonzero;fill:rgb(0%,0%,0%);fill-opacity:1;" d="M 843.398438 427.199219 C 840.601562 430.199219 842.199219 434 846.199219 434 C 849 434 850 433 849.601562 430.601562 C 849 427 845.601562 425.199219 843.398438 427.199219 Z M 843.398438 427.199219 "/>
<path style=" stroke:none;fill-rule:nonzero;fill:rgb(0%,0%,0%);fill-opacity:1;" d="M 164 431.199219 C 164 433 165.398438 434 167.398438 433.601562 C 172.398438 432.601562 173 428 168.199219 428 C 165.800781 428 164 429.199219 164 431.199219 Z M 164 431.199219 "/>
<path style=" stroke:none;fill-rule:nonzero;fill:rgb(0%,0%,0%);fill-opacity:1;" d="M 790.398438 452.800781 C 790.601562 454.800781 792 456.199219 793 456.199219 C 796 456 795.398438 451.398438 792.398438 450.398438 C 790.601562 449.800781 789.800781 450.800781 790.398438 452.800781 Z M 790.398438 452.800781 "/>
<path style=" stroke:none;fill-rule:nonzero;fill:rgb(0%,0%,0%);fill-opacity:1;" d="M 156.601562 500 C 156.398438 510.398438 157.398438 511.199219 165 508 C 168.800781 506.398438 168.800781 506.398438 164 504.398438 C 159.398438 502.601562 159.199219 502.199219 162.800781 500.800781 C 166.398438 499.398438 166.199219 499.199219 161.800781 497.601562 L 157 495.601562 L 169 490.398438 L 162.800781 490.199219 C 156.800781 490 156.800781 490.199219 156.601562 500 Z M 156.601562 500 "/>
<path style=" stroke:none;fill-rule:nonzero;fill:rgb(0%,0%,0%);fill-opacity:1;" d="M 188.601562 491.398438 C 184 492.199219 182 496 186 496 C 187.199219 496 188 499.199219 188 503 C 188 506.800781 189 510 190 510 C 191.199219 510 192 507.398438 192 504.199219 C 192 501 193.398438 497.398438 195 496 C 196.601562 494.601562 198 492.800781 198 491.800781 C 198 490 196.398438 489.800781 188.601562 491.398438 Z M 188.601562 491.398438 "/>
<path style=" stroke:none;fill-rule:nonzero;fill:rgb(0%,0%,0%);fill-opacity:1;" d="M 788 493 C 788 495.199219 789.199219 495.800781 792.800781 494.800781 C 797 493.800781 797.601562 494.199219 796.601562 498 C 796 500.398438 793.199219 503.398438 790.199219 504.601562 L 785 506.800781 L 790.601562 507.601562 C 799.199219 508.601562 801 507.199219 801 498.800781 C 801 491.398438 800.601562 491 794.398438 490.398438 C 789.601562 490 788 490.601562 788 493 Z M 788 493 "/>
<path style=" stroke:none;fill-rule:nonzero;fill:rgb(0%,0%,0%);fill-opacity:1;" d="M 816.601562 491.199219 C 812.601562 493 813.601562 496 818 496 C 823.199219 496 823 498.800781 817.800781 503.601562 C 813.199219 508 816.199219 510.601562 823 508 C 828.800781 505.800781 828.800781 491.199219 823 490.601562 C 820.800781 490.398438 817.800781 490.800781 816.601562 491.199219 Z M 816.601562 491.199219 "/>
<path style=" stroke:none;fill-rule:nonzero;fill:rgb(0%,0%,0%);fill-opacity:1;" d="M 846.601562 491.601562 C 845.398438 492.398438 844 496.199219 843.601562 500 C 843 507.601562 846 509.398438 855.199219 507.199219 C 858.800781 506.199219 860 504.601562 860 500.398438 C 860 491.800781 853.398438 487.398438 846.601562 491.601562 Z M 855 500 C 855 505.398438 850.601562 507.800781 848.800781 503.199219 C 847.199219 498.800781 849.398438 493.398438 852.601562 494.601562 C 853.800781 495 855 497.398438 855 500 Z M 855 500 "/>
<path style=" stroke:none;fill-rule:nonzero;fill:rgb(0%,0%,0%);fill-opacity:1;" d="M 214.199219 500.398438 C 213.199219 503 212.800781 505.601562 213.398438 506.398438 C 214.800781 509 219.398438 508.199219 222 505 C 224 502.601562 224 501.398438 222 499 C 218.601562 494.800781 216.199219 495.199219 214.199219 500.398438 Z M 220 502 C 220 503 219.601562 504 219.199219 504 C 218.601562 504 217.601562 503 217 502 C 216.398438 500.800781 216.800781 500 217.800781 500 C 219 500 220 500.800781 220 502 Z M 220 502 "/>
<path style=" stroke:none;fill-rule:nonzero;fill:rgb(0%,0%,0%);fill-opacity:1;" d="M 247.800781 501.199219 C 246 503.398438 246 504.800781 247.601562 506.398438 C 250.398438 509.199219 256 507 256 503.199219 C 256 499.199219 250.601562 497.800781 247.800781 501.199219 Z M 247.800781 501.199219 "/>
<path style=" stroke:none;fill-rule:nonzero;fill:rgb(0%,0%,0%);fill-opacity:1;" d="M 748.601562 501.199219 C 748 502.800781 748.398438 505.199219 749.601562 506.398438 C 752.601562 509.398438 758.199219 504.800781 756.601562 500.800781 C 755.199219 497 750.199219 497.199219 748.601562 501.199219 Z M 748.601562 501.199219 "/>
<path style=" stroke:none;fill-rule:nonzero;fill:rgb(0%,0%,0%);fill-opacity:1;" d="M 130.398438 577.398438 C 126.800781 594.800781 125.398438 610 127.601562 610 C 128.800781 610 132 606 134.800781 601 C 141 590.601562 145 588 155.398438 588 L 163 588 L 162.398438 641.398438 L 161.800781 695 L 151.800781 705.398438 L 161.199219 706.800781 C 175.199219 708.601562 194 708.199219 194 706 C 194 705 191.800781 702 189 699.199219 L 184 694.199219 L 184 585.601562 L 190.601562 587 C 200.398438 589.199219 205.199219 593 210 603 C 212.398438 608 215.398438 611.800781 216.800781 611.398438 C 218 610.800781 218.601562 609.199219 218.398438 607.800781 C 218 606.199219 216.800781 597 215.800781 587.199219 C 214.800781 577.398438 213.601562 568.800781 213 568.398438 C 212.398438 567.800781 210.398438 568.800781 208.398438 570.601562 C 203.199219 575.398438 144.398438 575.601562 137.199219 570.800781 C 132.398438 567.800781 132.398438 567.800781 130.398438 577.398438 Z M 130.398438 577.398438 "/>
<path style=" stroke:none;fill-rule:nonzero;fill:rgb(0%,0%,0%);fill-opacity:1;" d="M 697 570.800781 C 693.800781 573.199219 686.199219 573.800781 658 574 L 623 574 L 630.601562 580.199219 L 638 586.199219 L 638 628.199219 L 630.601562 632.601562 C 624.398438 636.199219 623.800781 637 627 637.601562 C 636.800781 639.398438 638 643 638 669.199219 L 638 693.601562 L 632 699.398438 C 628.800781 702.398438 626 705.601562 626 706.398438 C 626 707.199219 632 707.601562 639.601562 707.398438 C 647 707.199219 664.601562 707.398438 678.800781 707.800781 L 704.800781 708.601562 L 707 696.800781 C 711.199219 676.199219 712.199219 668 710.398438 668 C 709.398438 668 705.398438 673 701.398438 678.800781 C 693.199219 691 687 694 668.601562 694 L 658 694 L 658 646 L 668 646 C 677.601562 646 678 646.199219 682.199219 654.199219 C 684.398438 658.800781 687 661.601562 687.800781 660.800781 C 689.601562 658.398438 688 616 686 616 C 685.199219 616 683.800781 618.199219 683.199219 621 C 681 629.398438 675 634 666 634 L 658 634 L 658 588 L 670.800781 588 C 685.199219 588 690.398438 591.199219 696.800781 603.398438 C 698.601562 607 701 610 702 610 C 704.199219 610 704.398438 582.601562 702.199219 573.398438 C 701 568.199219 700.800781 568 697 570.800781 Z M 697 570.800781 "/>
<path style=" stroke:none;fill-rule:nonzero;fill:rgb(0%,0%,0%);fill-opacity:1;" d="M 224 576 C 224 577 225 578 226 578 C 227.199219 578 230.398438 580.199219 233 583 C 237.800781 587.601562 238 589.199219 238 610 C 238 627.398438 237.398438 632 235.199219 632 C 233.800781 632 231.398438 633.199219 230.199219 634.601562 C 228.601562 636.800781 229.199219 637.800781 233.199219 639.800781 L 238.398438 642 L 237.601562 668 C 237 693 236.800781 694 231.601562 699.398438 C 228.398438 702.601562 226 706 226 706.800781 C 226 707.601562 242 708 261.601562 707.800781 C 281 707.601562 298.199219 707.800781 299.800781 708.199219 C 301.800781 708.800781 303.398438 704.199219 306.199219 692 C 312.199219 663.601562 310.800781 659 301.398438 676 C 294 689.199219 288.800781 692.398438 272 693.601562 L 258 694.601562 L 258 586.398438 L 264.398438 580.199219 L 270.800781 574 L 247.398438 574 C 233.199219 574 224 574.800781 224 576 Z M 224 576 "/>
<path style=" stroke:none;fill-rule:nonzero;fill:rgb(0%,0%,0%);fill-opacity:1;" d="M 328.601562 580.601562 L 336 587.398438 L 336 624.199219 L 329 628.199219 L 322 632.398438 L 328.398438 636.800781 L 335 641.199219 L 335 694.398438 L 328.199219 700.199219 C 319 707.800781 321.398438 708.398438 354.398438 707.601562 C 377.601562 707 382.199219 706.398438 390.800781 702.199219 C 411 692.199219 418.199219 668.398438 406.601562 650.398438 C 403.601562 645.800781 398.601562 640.800781 395.601562 639.398438 C 392.398438 638.199219 390 636.601562 390 635.800781 C 390 635.199219 392.601562 632.199219 396 629 C 411.398438 614.199219 407.199219 590 387.199219 579.398438 C 380.199219 575.601562 375.199219 575 350.199219 574.398438 L 321.398438 573.601562 Z M 375.398438 591 C 380.800781 594.601562 384 601.601562 384 610.199219 C 384 622.800781 375.398438 631.800781 363.601562 632 L 356 632 L 356 585.398438 L 363.199219 586.601562 C 367.199219 587.199219 372.601562 589.199219 375.398438 591 Z M 381.601562 649 C 392 657.800781 392 677.601562 381.601562 688.199219 C 376.601562 693 374 694 365.800781 694 L 356 694 L 356 644 L 365.800781 644 C 373.398438 644 377 645.199219 381.601562 649 Z M 381.601562 649 "/>
<path style=" stroke:none;fill-rule:nonzero;fill:rgb(0%,0%,0%);fill-opacity:1;" d="M 459 581.199219 C 457.398438 585.199219 456 589.199219 456 590.199219 C 456 591 452.800781 602.800781 448.800781 616.398438 C 444.800781 630 441.199219 642.800781 440.601562 645 C 433 676.601562 426.601562 695 421.199219 700.199219 L 415.199219 706 L 420.199219 706.199219 C 422.800781 706.398438 430.601562 706.601562 437.601562 707 C 450.199219 707.398438 453.199219 705.800781 446.199219 702 C 440.601562 699.199219 439.800781 694.398438 442.800781 683 C 445.800781 671.800781 448 670.601562 467.398438 670.199219 C 477.800781 670 477.800781 670 479.800781 677.398438 C 482.800781 688.398438 482.398438 696.199219 478.601562 700.398438 C 476.800781 702.398438 476 704.601562 476.800781 705.398438 C 477.601562 706.199219 486.601562 707 497 707 C 511 707.199219 516 706.601562 516 704.800781 C 516 703.398438 514.398438 701.800781 512.398438 701 C 507.199219 699.398438 505.199219 694.398438 496 659.398438 C 491.601562 642.800781 484.800781 617.199219 481 603 C 477.199219 588.601562 474 576.398438 474 575.398438 C 474 574.601562 471.398438 574 468 574 C 463 574 461.601562 575.199219 459 581.199219 Z M 468.601562 635 C 471.601562 646.601562 474 656.398438 474 657 C 474 657.601562 468.398438 658 461.800781 658 C 450 658 449.601562 657.800781 450.800781 653.398438 C 451.398438 651 454 641.199219 456.601562 631.601562 C 459 621.800781 461.601562 614 462.199219 614 C 462.800781 614 465.800781 623.398438 468.601562 635 Z M 468.601562 635 "/>
<path style=" stroke:none;fill-rule:nonzero;fill:rgb(0%,0%,0%);fill-opacity:1;" d="M 525.601562 579.601562 C 533.601562 587 534.601562 592 533.199219 614.398438 C 532.601562 624.601562 532.199219 634.800781 532.199219 637 C 532.398438 639.199219 532.601562 653 532.601562 667.601562 C 532.601562 693.601562 532.601562 694.199219 527.398438 699.601562 C 524.398438 702.800781 522 705.800781 522 706.601562 C 522 707.398438 531.398438 708 543 708 C 554.601562 708 564 707.398438 564 706.800781 C 564 706.199219 561.800781 703.800781 559 701.601562 C 554.199219 698 554 696.800781 554 677.398438 C 554 660.601562 554.800781 656.199219 557.800781 652.199219 L 561.601562 647.199219 L 573.199219 670.199219 C 586.601562 696.398438 587.199219 697.601562 584.199219 700.601562 C 579.199219 705.601562 582.398438 707 601 707.199219 C 611.398438 707.398438 620 707 620 706.398438 C 620 705.800781 617.601562 703 614.800781 700.199219 C 612 697.398438 606.800781 689.601562 603.199219 683 C 599.601562 676.398438 594 666 590.601562 660 C 587.398438 654 582.199219 644.398438 579.199219 638.800781 L 573.800781 628.800781 L 585 612 C 600.601562 588.800781 607.398438 580.398438 612 579 C 621 576.199219 614.800781 574 597.601562 574 L 579.398438 574 L 583.800781 578.601562 C 589.398438 584.601562 588.800781 586.199219 569.199219 616 C 559.800781 630.199219 554 637.398438 554 635 C 553.800781 632.800781 553.800781 620.199219 554 607 C 554 584 554.199219 582.800781 559.199219 578.398438 L 564.199219 574 L 519.601562 574 Z M 525.601562 579.601562 "/>
<path style=" stroke:none;fill-rule:nonzero;fill:rgb(0%,0%,0%);fill-opacity:1;" d="M 720.398438 578.601562 C 728.199219 585.199219 730 590.199219 730 607 C 730 624.601562 728.398438 628.398438 720 632 C 712.800781 635 712.199219 638 719 638 C 728.398438 638 730.398438 644.800781 728.800781 672.199219 C 727.601562 694.398438 727 697 722.800781 700.601562 C 720.199219 702.800781 718 705.199219 718 706 C 718 706.800781 744.601562 706.800781 761.398438 706 C 761.601562 706 759 703.398438 755.800781 700.199219 C 750 694.398438 750 694 750 671.800781 L 750 649.398438 L 758.199219 650.601562 C 767.398438 651.800781 771.398438 656 773 666 C 778.601562 700.398438 781.601562 705.800781 796.601562 707.398438 C 805.800781 708.601562 818 705.199219 818 701.800781 C 818 700.800781 815.800781 700 813 700 C 804.199219 700 799.199219 692.199219 795.398438 673 C 793.199219 661.398438 790.398438 653.398438 787.398438 649.199219 L 782.601562 643 L 791 635 C 806.800781 620.199219 807.398438 600.800781 792.199219 585.800781 C 782.398438 576 774 574 742 574 L 715 574 Z M 766.601562 588.199219 C 776 590.800781 780.199219 597 780.398438 609.398438 C 780.800781 626.601562 771 637.199219 756.800781 635.601562 L 751 635 L 750.398438 611.601562 C 749.800781 587.398438 749.601562 588 758 586.199219 C 758.601562 586.199219 762.398438 587 766.601562 588.199219 Z M 766.601562 588.199219 "/>
<path style=" stroke:none;fill-rule:nonzero;fill:rgb(0%,0%,0%);fill-opacity:1;" d="M 805 577.199219 C 807.199219 578.800781 810 580.800781 811.398438 581.601562 C 813.800781 583 836 626.199219 836 629.601562 C 836 630.601562 837.800781 635.398438 840 640.199219 C 843.199219 647.199219 844 653.398438 844 671.398438 C 844 693.601562 844 693.601562 838 699.398438 C 834.800781 702.398438 832 705.601562 832 706.199219 C 832 707 841.800781 707.398438 854 707.199219 C 866 707.199219 876 706.398438 876 705.800781 C 876 705.199219 873.800781 702.601562 871 700 C 866.199219 695.398438 866 694.398438 866 670.601562 L 866 645.800781 L 881.398438 615.398438 C 890 598.398438 899.398438 582.800781 902.800781 579.601562 L 908.800781 574 L 891.398438 574 C 874.601562 574 870.199219 575.800781 877.398438 579.601562 C 880.398438 581.398438 880.398438 582.601562 878.199219 590 C 875.601562 599 860 632.800781 859.199219 631.601562 C 856.601562 628.601562 840 588 840 585.199219 C 840 583 841.398438 579.601562 843.398438 577.601562 C 846.398438 574.199219 845.800781 574 823.800781 574 C 802.800781 574.199219 801.398438 574.398438 805 577.199219 Z M 805 577.199219 "/>
<path style=" stroke:none;fill-rule:nonzero;fill:rgb(0%,0%,0%);fill-opacity:1;" d="M 350.398438 736.601562 C 344.601562 742.601562 344.800781 747.199219 351 751.199219 C 355.601562 754.199219 356.398438 754.199219 361 751.199219 C 367.398438 747 367.601562 739.398438 361.601562 735.199219 C 355.800781 731 355.601562 731.199219 350.398438 736.601562 Z M 360.800781 741.398438 C 361.601562 743.199219 360.800781 746 359 747.800781 C 356.398438 750.601562 355.601562 750.601562 353 747.800781 C 349.199219 744 351 738 356 738 C 358 738 360.199219 739.601562 360.800781 741.398438 Z M 360.800781 741.398438 "/>
<path style=" stroke:none;fill-rule:nonzero;fill:rgb(0%,0%,0%);fill-opacity:1;" d="M 430 743 C 430 749 431 754 432 754 C 433.199219 754 434 752.601562 434 751 C 434 749.398438 435 748 436 748 C 437.199219 748 438.601562 749.398438 439.199219 751 C 440 752.601562 441.800781 754 443.398438 754 C 445.800781 754 446 753.398438 444.199219 751.199219 C 442.398438 749 442.398438 747.199219 443.800781 744.199219 C 446.601562 739 444.800781 734.601562 439.398438 733.199219 C 430.601562 730.800781 430 731.601562 430 743 Z M 439.601562 739.398438 C 438.800781 743.800781 435.199219 743.398438 434.398438 739.199219 C 434 737.199219 435 736 437 736 C 439 736 440 737.398438 439.601562 739.398438 Z M 439.601562 739.398438 "/>
<path style=" stroke:none;fill-rule:nonzero;fill:rgb(0%,0%,0%);fill-opacity:1;" d="M 456 743 C 456 749 457 754 458 754 C 459.199219 754 460 751.601562 460 748.601562 L 460 743.199219 L 465.601562 748.601562 C 468.601562 751.601562 471.800781 754 472.601562 754 C 473.398438 754 474 749 474 743 C 474 737 473.199219 732 472 732 C 471 732 470 734.199219 470 737 C 470 739.800781 469.199219 742 468.199219 742 C 467.398438 742 464.800781 739.800781 462.800781 737 C 460.800781 734.199219 458.398438 732 457.601562 732 C 456.601562 732 456 737 456 743 Z M 456 743 "/>
<path style=" stroke:none;fill-rule:nonzero;fill:rgb(0%,0%,0%);fill-opacity:1;" d="M 504.800781 735.398438 C 504.199219 737.398438 502.601562 741 501.601562 743.398438 C 497.800781 751 500.800781 753.800781 512 753.601562 C 517.601562 753.398438 521.199219 752.601562 519.800781 752 C 518.398438 751 518.199219 748.601562 519 745.800781 C 520.398438 741.398438 520.398438 741.199219 516.800781 744 C 514.800781 745.601562 512.398438 747.800781 511.800781 748.800781 C 510 751.199219 503.398438 748.601562 505 746.199219 C 505.601562 745 507.398438 744.601562 508.800781 745.199219 C 511.800781 746.398438 515 737.199219 513 734 C 511 730.800781 506 731.800781 504.800781 735.398438 Z M 510 736 C 510 737 509 738 507.800781 738 C 506.800781 738 506.398438 737 507 736 C 507.601562 734.800781 508.601562 734 509.199219 734 C 509.601562 734 510 734.800781 510 736 Z M 510 736 "/>
<path style=" stroke:none;fill-rule:nonzero;fill:rgb(0%,0%,0%);fill-opacity:1;" d="M 546 743 L 546 754 L 553 754 C 556.800781 754 560 753 560 752 C 560 750.800781 558.199219 750 556.199219 750 C 554 750 551.601562 749 551 748 C 550.398438 746.800781 551.601562 746 553.800781 746 C 559.199219 746 559.199219 742.800781 554 741.398438 C 548.398438 740 549 736 555 736 C 557.800781 736 560 735 560 734 C 560 732.800781 556.800781 732 553 732 L 546 732 Z M 546 743 "/>
<path style=" stroke:none;fill-rule:nonzero;fill:rgb(0%,0%,0%);fill-opacity:1;" d="M 572.199219 732 C 571.800781 732.601562 571.199219 737.800781 570.601562 743.398438 L 569.800781 754 L 576.800781 754 C 581.398438 754 584 753 584 751.398438 C 584 749.800781 582 748.800781 579.601562 748.800781 C 575.601562 749 574.800781 747.800781 573.800781 740 C 573.199219 735 572.398438 731.398438 572.199219 732 Z M 572.199219 732 "/>
<path style=" stroke:none;fill-rule:nonzero;fill:rgb(0%,0%,0%);fill-opacity:1;" d="M 595.398438 733.398438 C 594.601562 734 594 739 594 744.398438 C 594 753.800781 594.199219 754 600 754 C 607 754 608 750.800781 601.601562 748.800781 L 597.398438 747.601562 L 602.199219 744.800781 C 605.800781 742.800781 606.199219 742.199219 603.601562 742 C 598.601562 742 599 736 604 736 C 606.199219 736 608 735 608 734 C 608 731.800781 597.398438 731.199219 595.398438 733.398438 Z M 595.398438 733.398438 "/>
<path style=" stroke:none;fill-rule:nonzero;fill:rgb(0%,0%,0%);fill-opacity:1;" d="M 622.601562 735.800781 C 616.601562 740.800781 616.800781 747.199219 623.199219 751.398438 C 627 753.800781 629.199219 754.199219 631.800781 752.601562 C 636.199219 749.800781 637 744.199219 633 742.800781 C 628.601562 741 626.398438 743.800781 630 746.199219 C 632.398438 747.800781 632 748 628.199219 747.601562 C 625.398438 747.199219 623 746 622.601562 744.800781 C 621.398438 741.199219 627.800781 736 631.601562 737.398438 C 634.601562 738.601562 634.601562 738.398438 632.199219 735.398438 C 628.800781 731.199219 628 731.199219 622.601562 735.800781 Z M 622.601562 735.800781 "/>
<path style=" stroke:none;fill-rule:nonzero;fill:rgb(0%,0%,0%);fill-opacity:1;" d="M 666 742.601562 C 666 748.800781 667 754 668 754 C 669.199219 754 670 751.601562 670 748.601562 L 670 743.199219 L 675.800781 748.800781 C 682.398438 755.199219 683.199219 754.601562 683.800781 741.199219 C 684.199219 734 683.601562 731.800781 681.601562 732.398438 C 680.199219 733 679.199219 735.398438 679.601562 737.601562 C 680.398438 743.398438 678.398438 743.199219 671.601562 736.601562 L 666 731.199219 Z M 666 742.601562 "/>
<path style=" stroke:none;fill-rule:nonzero;fill:rgb(0%,0%,0%);fill-opacity:1;" d="M 705.199219 735.800781 C 701.601562 739.800781 701.199219 739.800781 698.800781 736.398438 C 695 731.199219 693 735 696.800781 740.398438 C 698.601562 742.800781 700 746.398438 700 748.398438 C 700 750.398438 701 752 702 752 C 703.199219 752 704 749.398438 704 746 C 704 742.800781 705.398438 739.398438 707.199219 738.398438 C 709 737.398438 710.199219 735.398438 709.800781 734.199219 C 709.199219 732.601562 707.601562 733 705.199219 735.800781 Z M 705.199219 735.800781 "/>
<path style=" stroke:none;fill-rule:nonzero;fill:rgb(0%,0%,0%);fill-opacity:1;" d="M 314 742.800781 C 314 747.800781 315 752.398438 316 753 C 317.800781 754.199219 318.800781 751.398438 318.199219 747.398438 C 317.800781 745.199219 321.601562 745.800781 323 748.199219 C 324 749.601562 325.800781 749 328.199219 746.800781 C 331.800781 743.601562 332 743.601562 332 748.601562 C 332 751.601562 333 754 334 754 C 335.199219 754 336 749.398438 336 744 C 336 733.199219 333 730.800781 328.398438 738.199219 L 325.601562 742.398438 L 322.800781 738.199219 C 317.601562 731 314 733 314 742.800781 Z M 314 742.800781 "/>
<path style=" stroke:none;fill-rule:nonzero;fill:rgb(0%,0%,0%);fill-opacity:1;" d="M 376.398438 744 C 376 753.398438 376.199219 754 381 754 C 388 754 394.601562 747 392.800781 741.398438 C 391.199219 736 388.398438 734 382 734 C 377.199219 734 376.800781 734.800781 376.398438 744 Z M 388.601562 740.800781 C 389.199219 742.398438 388.398438 745.199219 387 747.398438 C 383.398438 752 379 748.398438 381 742.199219 C 382.398438 737.398438 387 736.601562 388.601562 740.800781 Z M 388.601562 740.800781 "/>
<path style=" stroke:none;fill-rule:nonzero;fill:rgb(0%,0%,0%);fill-opacity:1;" d="M 404 744 L 404 754 L 411 754 C 414.800781 754 418 753 418 752 C 418 750.800781 416.199219 750 414 750 C 408.601562 750 409 746.800781 414.601562 745 C 418.800781 743.398438 418.800781 743.398438 413.601562 742.601562 C 410.398438 742.199219 408 740.601562 408 739 C 408 737.398438 410.398438 735.800781 413.601562 735.398438 C 418 734.800781 417.601562 734.601562 411.601562 734.199219 L 404 734 Z M 404 744 "/>
<path style=" stroke:none;fill-rule:nonzero;fill:rgb(0%,0%,0%);fill-opacity:1;" d="M 646.199219 743 C 641 754.800781 641 755.601562 646 751 C 649.199219 748 650.398438 747.800781 653 750 C 658 754 658.398438 751.199219 654.199219 742 L 650.398438 733.398438 Z M 646.199219 743 "/>
<path style=" stroke:none;fill-rule:nonzero;fill:rgb(0%,0%,0%);fill-opacity:1;" d="M 157.601562 741.398438 C 155.601562 741.800781 154 743.199219 154 744.199219 C 154 745.199219 182 746 223.199219 746 C 277.601562 746 292.199219 745.398438 291.601562 743.398438 C 290.800781 741.601562 275.800781 741 225.800781 740.800781 C 190.199219 740.601562 159.398438 740.800781 157.601562 741.398438 Z M 157.601562 741.398438 "/>
<path style=" stroke:none;fill-rule:nonzero;fill:rgb(0%,0%,0%);fill-opacity:1;" d="M 730.398438 741.398438 C 721.601562 745 737.601562 746 801.199219 746 C 862.800781 746 872 745.601562 872 743 C 872 740.398438 863 740 802.601562 740.199219 C 764.199219 740.199219 731.800781 740.800781 730.398438 741.398438 Z M 730.398438 741.398438 "/>
<path style=" stroke:none;fill-rule:nonzero;fill:rgb(0%,0%,0%);fill-opacity:1;" d="M 502 781 C 500.601562 782.601562 500 784.601562 500.601562 785.398438 C 501.398438 786 501 787.800781 499.601562 789.398438 C 497.800781 791.601562 498 792.800781 500.199219 795.199219 C 505.398438 800.199219 511.398438 800.199219 514.800781 795 C 519 788.601562 518.800781 787.398438 514.199219 788.601562 C 511 789.398438 510.398438 788.601562 510.601562 784.398438 C 511 778.199219 506 776.199219 502 781 Z M 502 781 "/>
<path style=" stroke:none;fill-rule:nonzero;fill:rgb(0%,0%,0%);fill-opacity:1;" d="M 308.601562 791.398438 C 305 792.800781 305.398438 797 309.199219 800.199219 C 311.800781 802.199219 312.601562 802.199219 314.199219 799.800781 C 317.800781 794.199219 314.398438 789 308.601562 791.398438 Z M 308.601562 791.398438 "/>
<path style=" stroke:none;fill-rule:nonzero;fill:rgb(0%,0%,0%);fill-opacity:1;" d="M 705.199219 793.199219 C 703.601562 797.199219 705.398438 800 709.199219 800 C 713.199219 800 715.199219 794 711.800781 791.800781 C 707.800781 789.398438 706.601562 789.601562 705.199219 793.199219 Z M 705.199219 793.199219 "/>
<path style=" stroke:none;fill-rule:nonzero;fill:rgb(0%,0%,0%);fill-opacity:1;" d="M 342 794 C 342 795 343.800781 796 346.199219 796 C 348.398438 796 349.601562 795 349 794 C 348.398438 792.800781 346.398438 792 344.800781 792 C 343.199219 792 342 792.800781 342 794 Z M 342 794 "/>
<path style=" stroke:none;fill-rule:nonzero;fill:rgb(0%,0%,0%);fill-opacity:1;" d="M 669 793.800781 C 667.601562 796.199219 671.398438 798.601562 674 797 C 676.199219 795.601562 674.800781 792 672 792 C 671 792 669.800781 792.800781 669 793.800781 Z M 669 793.800781 "/>
<path style=" stroke:none;fill-rule:nonzero;fill:rgb(0%,0%,0%);fill-opacity:1;" d="M 741.199219 793.800781 C 739.800781 796 741.800781 802 743.800781 802 C 745.800781 802 749.800781 794.601562 748.601562 793.199219 C 746.800781 791.398438 742.398438 791.800781 741.199219 793.800781 Z M 741.199219 793.800781 "/>
<path style=" stroke:none;fill-rule:nonzero;fill:rgb(0%,0%,0%);fill-opacity:1;" d="M 478.800781 808 C 472.398438 812.199219 462 829 462 835.199219 C 462 837.398438 464 842.199219 466.398438 846 C 468.800781 849.800781 471.800781 854.800781 473 856.800781 C 480 869.800781 541.601562 868.199219 543.601562 855 C 543.800781 852.800781 545.199219 847.601562 546.398438 843.601562 C 549.199219 834.398438 547.398438 828.398438 543 832 C 541.199219 833.398438 540 836 540.398438 837.800781 C 542 848.601562 529 856 508 856 C 494 856 474.800781 852.601562 477 850.398438 C 477.398438 849.800781 476.199219 848.199219 474 846.601562 C 469.601562 843.601562 468.199219 829.398438 472 827 C 473.199219 826.398438 474 824.601562 474 823.398438 C 474 822 473.199219 822.199219 472 824 C 470.398438 826.601562 470 826.398438 470 823.398438 C 470 821.601562 473.601562 816.398438 478 812 C 482.398438 807.601562 485.800781 804 485.601562 804 C 485.199219 804 482.199219 805.800781 478.800781 808 Z M 478.800781 808 "/>
<path style=" stroke:none;fill-rule:nonzero;fill:rgb(0%,0%,0%);fill-opacity:1;" d="M 500.800781 821 C 497.398438 827.398438 497.199219 828.601562 500 833.601562 C 501.800781 836.601562 504.601562 839.199219 506.601562 839.601562 C 509.800781 840.199219 516 835.800781 516 833.199219 C 516 830.601562 507.398438 814 506 814 C 505.199219 814 503 817.199219 500.800781 821 Z M 500.800781 821 "/>
<path style=" stroke:none;fill-rule:nonzero;fill:rgb(0%,0%,0%);fill-opacity:1;" d="M 413.601562 820.398438 C 412.398438 823.601562 413.800781 828 416 828 C 418.800781 828 424.199219 821.800781 423 819.800781 C 421.199219 817.199219 414.601562 817.601562 413.601562 820.398438 Z M 413.601562 820.398438 "/>
<path style=" stroke:none;fill-rule:nonzero;fill:rgb(0%,0%,0%);fill-opacity:1;" d="M 585.199219 823.199219 C 583.398438 827.800781 583.601562 828 590 828 C 596.800781 828 597.800781 825.199219 592.199219 822 C 587 819.398438 586.601562 819.398438 585.199219 823.199219 Z M 585.199219 823.199219 "/>
<path style=" stroke:none;fill-rule:nonzero;fill:rgb(0%,0%,0%);fill-opacity:1;" d="M 576 832 C 573.601562 833.601562 573.800781 834 577.398438 834 C 579.800781 834 582.398438 833 583 832 C 584.601562 829.398438 580 829.398438 576 832 Z M 576 832 "/>
<path style=" stroke:none;fill-rule:nonzero;fill:rgb(0%,0%,0%);fill-opacity:1;" d="M 433.398438 833.398438 C 430.800781 835.800781 432 838 436 838 C 438.199219 838 440 836.601562 440 835 C 440 832 435.800781 830.800781 433.398438 833.398438 Z M 433.398438 833.398438 "/>
<path style=" stroke:none;fill-rule:nonzero;fill:rgb(0%,0%,0%);fill-opacity:1;" d="M 561 844 C 559.601562 846.398438 561.398438 850 564.199219 850 C 566.601562 850 566.601562 844.601562 564.199219 843 C 563.199219 842.398438 561.800781 842.800781 561 844 Z M 561 844 "/>
</g>
</svg>
